<svg xmlns="http://www.w3.org/2000/svg" viewBox="0 0 900 540" role="img" aria-labelledby="title desc">
  <title id="title">特製ビリヤニのプレースホルダー</title>
  <desc id="desc">夜限定ビリヤニを表す差し替え用画像</desc>
  <rect width="900" height="540" fill="#fff8ea"/>
  <ellipse cx="450" cy="306" rx="318" ry="168" fill="#ead3a2"/>
  <ellipse cx="450" cy="286" rx="282" ry="136" fill="#fffdf7"/>
  <path d="M250 300c89-103 301-149 405-22 24 30 26 62 8 89-59 90-346 98-426 9-19-21-11-48 13-76Z" fill="#f5d778"/>
  <g stroke="#c7351f" stroke-width="10" stroke-linecap="round">
    <path d="M335 295c41-30 74-38 116-45"/>
    <path d="M452 351c45-21 86-28 139-26"/>
    <path d="M304 359c37-16 81-20 129-12"/>
  </g>
  <g fill="#3f6b45">
    <ellipse cx="513" cy="248" rx="36" ry="13" transform="rotate(-18 513 248)"/>
    <ellipse cx="391" cy="330" rx="31" ry="11" transform="rotate(20 391 330)"/>
    <ellipse cx="600" cy="370" rx="29" ry="10" transform="rotate(-14 600 370)"/>
  </g>
  <g fill="#2b2118" opacity=".16">
    <circle cx="364" cy="266" r="6"/>
    <circle cx="544" cy="311" r="5"/>
    <circle cx="476" cy="388" r="5"/>
    <circle cx="638" cy="303" r="6"/>
  </g>
  <text x="450" y="488" text-anchor="middle" font-family="Arial, sans-serif" font-size="26" font-weight="700" fill="#2b2118">Biryani Placeholder</text>
</svg>
