<svg xmlns="http://www.w3.org/2000/svg" viewBox="0 0 900 540" role="img" aria-labelledby="title desc">
  <title id="title">昼カレーワンプレートのプレースホルダー</title>
  <desc id="desc">カレーのワンプレートを表す差し替え用画像</desc>
  <rect width="900" height="540" fill="#fff8ea"/>
  <ellipse cx="450" cy="278" rx="330" ry="190" fill="#ead3a2"/>
  <ellipse cx="450" cy="270" rx="292" ry="158" fill="#fffdf7"/>
  <circle cx="382" cy="246" r="90" fill="#f7f0dc"/>
  <path d="M207 282c35-76 119-107 188-76 43 20 62 68 41 109-24 48-98 66-156 41-43-19-90-34-73-74Z" fill="#c7351f"/>
  <path d="M446 194c42-72 140-84 198-24 37 38 30 94-14 124-50 35-136 16-173-38-18-26-27-36-11-62Z" fill="#f2b705"/>
  <path d="M470 329c54-57 145-52 191 11 31 42 19 96-28 121-54 29-126-2-159-65-12-22-25-45-4-67Z" fill="#3f6b45"/>
  <text x="450" y="488" text-anchor="middle" font-family="Arial, sans-serif" font-size="26" font-weight="700" fill="#2b2118">Curry Plate Placeholder</text>
</svg>
