<svg xmlns="http://www.w3.org/2000/svg" viewBox="0 0 900 900" role="img" aria-labelledby="title desc">
  <title id="title">ロクパ rogspa カレープレートのプレースホルダー</title>
  <desc id="desc">生成りの背景に3種のカレーとライスを配置した差し替え用画像</desc>
  <rect width="900" height="900" fill="#fff8ea"/>
  <circle cx="450" cy="450" r="360" fill="#fffdf7"/>
  <circle cx="450" cy="450" r="318" fill="#ead3a2"/>
  <circle cx="450" cy="450" r="284" fill="#fffdf7"/>
  <path d="M445 252c82 5 148 76 147 159-2 101-72 167-150 167-88 0-159-70-159-158 0-95 77-173 162-168Z" fill="#f7f0dc"/>
  <path d="M210 522c40-87 137-123 213-87 51 24 77 79 59 129-20 57-92 89-164 69-68-18-133-55-108-111Z" fill="#c7351f"/>
  <path d="M499 330c35-89 136-126 218-84 58 30 78 103 38 156-45 60-145 67-213 18-38-27-60-46-43-90Z" fill="#f2b705"/>
  <path d="M489 562c52-72 152-85 220-28 50 42 55 116 11 165-49 54-139 48-203-9-39-35-58-86-28-128Z" fill="#3f6b45"/>
  <g fill="#2b2118" opacity=".18">
    <circle cx="326" cy="513" r="7"/>
    <circle cx="358" cy="557" r="5"/>
    <circle cx="555" cy="364" r="6"/>
    <circle cx="676" cy="318" r="5"/>
    <circle cx="609" cy="625" r="6"/>
    <circle cx="674" cy="584" r="4"/>
  </g>
  <g fill="#f8d55c">
    <circle cx="382" cy="418" r="10"/>
    <circle cx="425" cy="486" r="8"/>
    <circle cx="515" cy="262" r="7"/>
    <circle cx="713" cy="456" r="9"/>
  </g>
  <text x="450" y="760" text-anchor="middle" font-family="Arial, sans-serif" font-size="32" font-weight="700" fill="#2b2118">Photo Placeholder</text>
</svg>
